<svg width="21" height="20" viewBox="0 0 21 20" fill="none" xmlns="http://www.w3.org/2000/svg">
<path d="M8.28125 8C8.28125 7.80222 8.2226 7.60888 8.11272 7.44443C8.00284 7.27998 7.84666 7.15181 7.66394 7.07612C7.48121 7.00043 7.28014 6.98063 7.08616 7.01921C6.89218 7.0578 6.714 7.15304 6.57415 7.29289C6.43429 7.43274 6.33905 7.61093 6.30047 7.80491C6.26188 7.99889 6.28169 8.19996 6.35737 8.38268C6.43306 8.56541 6.56123 8.72159 6.72568 8.83147C6.89013 8.94135 7.08347 9 7.28125 9C7.54647 9 7.80082 8.89464 7.98836 8.70711C8.1759 8.51957 8.28125 8.26522 8.28125 8ZM12.7813 12.06C12.6677 11.9935 12.5422 11.95 12.4118 11.9321C12.2814 11.9142 12.1488 11.9222 12.0215 11.9556C11.8942 11.9891 11.7748 12.0473 11.6701 12.127C11.5654 12.2067 11.4774 12.3062 11.4113 12.42C11.2977 12.6196 11.1334 12.7856 10.9349 12.901C10.7364 13.0165 10.5109 13.0773 10.2813 13.0773C10.0516 13.0773 9.82611 13.0165 9.62763 12.901C9.42914 12.7856 9.26478 12.6196 9.15125 12.42C9.08509 12.3062 8.99713 12.2067 8.8924 12.127C8.78768 12.0473 8.66826 11.9891 8.54098 11.9556C8.41371 11.9222 8.28109 11.9142 8.15071 11.9321C8.02034 11.95 7.89479 11.9935 7.78125 12.06C7.55252 12.1919 7.38525 12.4089 7.31593 12.6637C7.24661 12.9185 7.28088 13.1904 7.41125 13.42C7.7013 13.9248 8.11936 14.3442 8.62326 14.6358C9.12715 14.9274 9.69905 15.081 10.2813 15.081C10.8635 15.081 11.4354 14.9274 11.9393 14.6358C12.4431 14.3442 12.8612 13.9248 13.1513 13.42C13.2816 13.1904 13.3159 12.9185 13.2466 12.6637C13.1773 12.4089 13.01 12.1919 12.7813 12.06ZM13.2813 7C13.0835 7 12.8901 7.05865 12.7257 7.16853C12.5612 7.27841 12.4331 7.43459 12.3574 7.61732C12.2817 7.80004 12.2619 8.00111 12.3005 8.19509C12.3391 8.38907 12.4343 8.56725 12.5741 8.70711C12.714 8.84696 12.8922 8.9422 13.0862 8.98078C13.2801 9.01937 13.4812 8.99957 13.6639 8.92388C13.8467 8.84819 14.0028 8.72002 14.1127 8.55557C14.2226 8.39112 14.2813 8.19778 14.2813 8C14.2813 7.73478 14.1759 7.48043 13.9884 7.29289C13.8008 7.10536 13.5465 7 13.2813 7ZM10.2813 0C8.30344 0 6.37004 0.58649 4.72555 1.6853C3.08106 2.78412 1.79934 4.3459 1.04246 6.17316C0.285583 8.00043 0.0875495 10.0111 0.473402 11.9509C0.859254 13.8907 1.81166 15.6725 3.21019 17.0711C4.60871 18.4696 6.39054 19.422 8.33035 19.8079C10.2702 20.1937 12.2808 19.9957 14.1081 19.2388C15.9353 18.4819 17.4971 17.2002 18.5959 15.5557C19.6948 13.9112 20.2813 11.9778 20.2813 10C20.2813 8.68678 20.0226 7.38642 19.52 6.17316C19.0175 4.95991 18.2809 3.85752 17.3523 2.92893C16.4237 2.00035 15.3213 1.26375 14.1081 0.761205C12.8948 0.258658 11.5945 0 10.2813 0ZM10.2813 18C8.41857 18.008 6.61146 17.3658 5.17157 16.1842C3.73168 15.0025 2.74927 13.3554 2.39377 11.5269C2.03827 9.69843 2.33196 7.80322 3.22418 6.16811C4.11641 4.53299 5.55125 3.26047 7.28125 2.57C7.27097 2.71315 7.27097 2.85685 7.28125 3C7.28125 3.79565 7.59732 4.55871 8.15993 5.12132C8.72254 5.68393 9.4856 6 10.2813 6C10.5465 6 10.8008 5.89464 10.9884 5.70711C11.1759 5.51957 11.2813 5.26522 11.2813 5C11.2813 4.73478 11.1759 4.48043 10.9884 4.29289C10.8008 4.10536 10.5465 4 10.2813 4C10.016 4 9.76168 3.89464 9.57415 3.70711C9.38661 3.51957 9.28125 3.26522 9.28125 3C9.28125 2.73478 9.38661 2.48043 9.57415 2.29289C9.76168 2.10536 10.016 2 10.2813 2C12.403 2 14.4378 2.84285 15.9381 4.34315C17.4384 5.84344 18.2813 7.87827 18.2813 10C18.2813 12.1217 17.4384 14.1566 15.9381 15.6569C14.4378 17.1571 12.403 18 10.2813 18Z" fill="black"/>
</svg>
