<svg width="157" height="107" viewBox="0 0 157 107" fill="none" xmlns="http://www.w3.org/2000/svg">
<path d="M32.7993 44.624L32.5433 29.52H15.7753C15.6899 35.92 15.6473 40.6987 15.6473 43.856L20.0633 44.432C20.0633 46.1813 19.5726 48.0373 18.5913 50H3.03925L2.46325 46.48C4.85258 45.4987 6.64458 44.88 7.83925 44.624C7.83925 44.496 7.64725 33.2107 7.26325 10.768L1.95125 9.104L2.46325 5.2H19.0393C19.7219 6.352 20.1273 8.03733 20.2553 10.256C18.0793 10.5973 16.6499 10.8107 15.9673 10.896C15.8819 16.4427 15.8393 20.6027 15.8393 23.376H32.4153L32.2233 10.768L26.9113 9.104L27.4233 5.2H43.9993C44.6819 6.352 45.0873 8.03733 45.2153 10.256C43.0393 10.5973 41.6099 10.8107 40.9273 10.896L40.6073 43.856L45.0233 44.432C45.0233 46.1813 44.5326 48.0373 43.5513 50H27.9993L27.4233 46.48C29.8126 45.4987 31.6046 44.88 32.7993 44.624ZM66.5363 21.84C65.0003 21.84 63.2509 22.224 61.2883 22.992C60.7336 23.8453 60.2003 25.36 59.6883 27.536C59.2189 29.6693 58.9843 31.824 58.9843 34C58.9843 38.0107 59.5816 40.8693 60.7763 42.576C61.9709 44.24 63.8909 45.072 66.5363 45.072C69.2243 45.072 71.1656 44.24 72.3603 42.576C73.5549 40.8693 74.1523 37.968 74.1523 33.872C74.1523 29.7333 73.5336 26.704 72.2963 24.784C71.1016 22.8213 69.1816 21.84 66.5363 21.84ZM66.5363 16.72C71.5283 16.72 75.5389 18.256 78.5683 21.328C81.6403 24.3573 83.1763 28.6027 83.1763 34.064C83.1763 39.4827 81.6616 43.6213 78.6323 46.48C75.6029 49.3387 71.5709 50.768 66.5363 50.768C61.5016 50.768 57.4696 49.3387 54.4403 46.48C51.4536 43.6213 49.9603 39.4827 49.9603 34.064C49.9603 28.6027 51.4749 24.3573 54.5043 21.328C57.5336 18.256 61.5443 16.72 66.5363 16.72ZM91.8218 50.768L90.4138 50.704C90.1578 50.2347 89.8164 49.36 89.3898 48.08C88.9631 46.8 88.7284 45.84 88.6858 45.2C88.4724 40.976 88.2378 33.6587 87.9818 23.248H83.5018L83.6938 19.6C84.6751 18.9173 85.8484 18.2987 87.2138 17.744L92.3978 9.552C94.0618 9.72267 95.3631 10.1707 96.3018 10.896L96.2378 16.976C98.9258 17.0613 101.422 17.3173 103.726 17.744C103.726 19.4507 103.192 21.2853 102.126 23.248H96.1738C96.0031 32.208 95.8964 38.928 95.8538 43.408C97.5604 43.5787 99.8858 44.0693 102.83 44.88L102.766 48.208C102.04 48.6773 100.419 49.232 97.9018 49.872C95.4271 50.4693 93.4004 50.768 91.8218 50.768ZM123.352 44.496C124.802 44.496 127.746 43.4933 132.184 41.488C133.122 42.8533 133.826 44.432 134.296 46.224C131.949 47.6747 129.645 48.8053 127.384 49.616C125.165 50.384 123.586 50.768 122.648 50.768C117.485 50.768 113.56 49.3387 110.872 46.48C108.226 43.6213 106.904 39.568 106.904 34.32C106.904 29.0293 108.226 24.784 110.872 21.584C113.517 18.3413 117.442 16.72 122.648 16.72C126.786 16.72 129.944 18.064 132.12 20.752C134.296 23.44 135.384 26.9387 135.384 31.248C135.384 32.144 134.872 33.168 133.848 34.32L115.416 34C115.501 37.4133 116.141 40.016 117.336 41.808C118.53 43.6 120.536 44.496 123.352 44.496ZM122.072 22.032C120.45 22.032 118.936 22.352 117.528 22.992C116.546 25.04 115.928 26.9387 115.672 28.688C119 28.56 122.776 28.4747 127 28.432C126.786 24.1653 125.144 22.032 122.072 22.032ZM151.686 2.448C152.496 2.448 153.008 2.46933 153.222 2.512C153.222 4.73066 152.944 6.672 152.39 8.336C152.347 10.9813 152.283 14.7147 152.198 19.536C152.027 30.1173 151.899 38.224 151.814 43.856L156.806 44.432C156.806 46.1813 156.315 48.0373 155.334 50H139.398L138.822 46.48C141.467 45.4987 143.387 44.8587 144.582 44.56L143.366 9.04C141.36 8.82666 139.675 8.50666 138.31 8.08C138.31 6.50133 138.459 4.96533 138.758 3.472C141.275 2.78933 145.584 2.448 151.686 2.448ZM36.013 79.352C37.037 79.1813 37.805 79.096 38.317 79.096C38.8717 79.096 40.045 79.2453 41.837 79.544C42.0077 79.8853 42.2423 80.9733 42.541 82.808C42.8823 84.6427 43.053 86.136 43.053 87.288C43.053 88.3973 42.925 89.6347 42.669 91H11.629L11.053 87.48C13.1437 86.6267 14.9357 86.008 16.429 85.624C16.429 85.496 16.237 74.2107 15.853 51.768L10.541 50.104L11.053 46.2H27.693C27.6503 46.2 27.6503 46.2427 27.693 46.328C27.7783 46.4133 27.8637 46.6053 27.949 46.904C28.077 47.16 28.205 47.48 28.333 47.864C28.589 48.5467 28.7597 49.6773 28.845 51.256C26.669 51.5973 25.2397 51.8107 24.557 51.896C24.3863 66.616 24.2797 77.6027 24.237 84.856H34.605L36.013 79.352ZM62.88 62.84C61.344 62.84 59.5947 63.224 57.632 63.992C57.0773 64.8453 56.544 66.36 56.032 68.536C55.5627 70.6693 55.328 72.824 55.328 75C55.328 79.0107 55.9253 81.8693 57.12 83.576C58.3147 85.24 60.2347 86.072 62.88 86.072C65.568 86.072 67.5093 85.24 68.704 83.576C69.8987 81.8693 70.496 78.968 70.496 74.872C70.496 70.7333 69.8773 67.704 68.64 65.784C67.4453 63.8213 65.5253 62.84 62.88 62.84ZM62.88 57.72C67.872 57.72 71.8827 59.256 74.912 62.328C77.984 65.3573 79.52 69.6027 79.52 75.064C79.52 80.4827 78.0053 84.6213 74.976 87.48C71.9467 90.3387 67.9147 91.768 62.88 91.768C57.8453 91.768 53.8133 90.3387 50.784 87.48C47.7973 84.6213 46.304 80.4827 46.304 75.064C46.304 69.6027 47.8187 65.3573 50.848 62.328C53.8773 59.256 57.888 57.72 62.88 57.72ZM106.214 79.928C104.806 80.824 103.312 81.4853 101.734 81.912C100.155 82.296 98.6188 82.488 97.1255 82.488C95.6748 82.488 94.3948 82.3387 93.2855 82.04C92.8162 83.1493 92.3682 83.9813 91.9415 84.536C92.2828 85.048 95.8668 85.304 102.694 85.304C106.96 85.304 109.968 85.9653 111.718 87.288C112.528 87.8427 113.232 88.7173 113.83 89.912C114.47 91.1067 114.79 92.6427 114.79 94.52C114.79 96.44 113.851 98.36 111.974 100.28C110.096 102.2 107.75 103.715 104.934 104.824C102.118 105.933 99.3228 106.488 96.5495 106.488C91.9415 106.488 88.2082 105.571 85.3495 103.736C82.4908 101.944 81.0615 99.704 81.0615 97.016C81.0615 96.504 81.8082 95.2453 83.3015 93.24C84.7948 91.2773 85.7762 90.1467 86.2455 89.848C85.8188 89.6347 85.0722 88.9307 84.0055 87.736C82.9388 86.4987 82.3415 85.624 82.2135 85.112C82.7682 83.576 84.4748 81.656 87.3335 79.352C84.0055 77.3467 82.3415 73.976 82.3415 69.24C82.3415 65.4853 83.6215 62.6267 86.1815 60.664C88.7842 58.7013 92.1975 57.72 96.4215 57.72C100.688 57.72 103.91 58.296 106.086 59.448C109.712 58.808 112.272 58.488 113.766 58.488C115.302 58.488 116.304 58.5093 116.774 58.552C116.774 59.576 116.518 60.7493 116.006 62.072C115.536 63.352 115.088 64.248 114.662 64.76L109.158 63.48C110.224 65.016 110.757 67 110.757 69.432C110.757 71.864 110.352 73.9973 109.542 75.832C108.731 77.624 107.622 78.9893 106.214 79.928ZM105.894 98.232C106.192 97.4213 106.342 96.4827 106.342 95.416C106.342 94.3493 105.872 93.56 104.934 93.048C103.995 92.5787 102.886 92.344 101.606 92.344C96.6135 92.344 93.3068 92.3013 91.6855 92.216C91.3442 92.9413 90.9175 93.9653 90.4055 95.288C89.8935 96.6533 89.6375 97.464 89.6375 97.72C89.6375 97.976 89.8082 98.3387 90.1495 98.808C90.4908 99.32 91.2162 99.8533 92.3255 100.408C93.4775 100.963 94.8642 101.24 96.4855 101.24C98.1495 101.24 100.091 100.856 102.31 100.088C104.528 99.32 105.723 98.7013 105.894 98.232ZM100.71 64.248C99.7282 63.096 98.3415 62.52 96.5495 62.52C94.7575 62.52 93.3495 63.096 92.3255 64.248C91.3442 65.4 90.8535 67.0853 90.8535 69.304C90.8535 71.48 91.3655 73.1867 92.3895 74.424C93.4135 75.6613 94.8002 76.28 96.5495 76.28C100.347 76.28 102.246 73.9333 102.246 69.24C102.246 67.064 101.734 65.4 100.71 64.248ZM134.318 62.84C132.782 62.84 131.032 63.224 129.07 63.992C128.515 64.8453 127.982 66.36 127.47 68.536C127 70.6693 126.766 72.824 126.766 75C126.766 79.0107 127.363 81.8693 128.558 83.576C129.752 85.24 131.672 86.072 134.318 86.072C137.006 86.072 138.947 85.24 140.142 83.576C141.336 81.8693 141.934 78.968 141.934 74.872C141.934 70.7333 141.315 67.704 140.078 65.784C138.883 63.8213 136.963 62.84 134.318 62.84ZM134.318 57.72C139.31 57.72 143.32 59.256 146.35 62.328C149.422 65.3573 150.958 69.6027 150.958 75.064C150.958 80.4827 149.443 84.6213 146.414 87.48C143.384 90.3387 139.352 91.768 134.318 91.768C129.283 91.768 125.251 90.3387 122.222 87.48C119.235 84.6213 117.742 80.4827 117.742 75.064C117.742 69.6027 119.256 65.3573 122.286 62.328C125.315 59.256 129.326 57.72 134.318 57.72Z" fill="white"/>
<path d="M82.9497 2.05025C80.2161 -0.683418 75.7839 -0.683417 73.0503 2.05025L28.5025 46.598C25.7689 49.3317 25.7689 53.7638 28.5025 56.4975C31.2362 59.2311 35.6684 59.2311 38.402 56.4975L78 16.8995L117.598 56.4975C120.332 59.2311 124.764 59.2311 127.497 56.4975C130.231 53.7638 130.231 49.3316 127.497 46.598L82.9497 2.05025ZM85 17L85 7L71 7L71 17L85 17Z" fill="#65AEF2"/>
</svg>
